<?xml version="1.0"?>
<svg xmlns="http://www.w3.org/2000/svg" viewBox="0 0 64 64" width="512" height="512"><path d="m13 15h2v9h-2z" fill="#898989"/><path d="m2 23h22v39h-22z" fill="#5160ed"/><path d="m7 54.96289h2v7.03711h-2z" fill="#6b8182"/><path d="m16 54.96289h2v7.03711h-2z" fill="#6b8182"/><path d="m7.50011 5.38259h1.99979v4.24264h-1.99979z" fill="#898989" transform="matrix(.70710678 -.70710678 .70710678 .70710678 -2.81647 8.20825)"/><path d="m15.64844 3.29688a.99962.99962 0 0 0 -1.41406 0l-9.94138 9.9414a.99962.99962 0 0 0 0 1.41406 8.02953 8.02953 0 1 0 11.35544-11.35546z" fill="#ed4720"/><path d="m21 52.31546c0 4.35658-1.79086 3.64075-4 3.64075s-4 .71583-4-3.64075 1.79086-10.31546 4-10.31546 4 5.95887 4 10.31546z" fill="#36d8d0"/><path d="m12 52.31546c0 4.35658-1.79086 3.64075-4 3.64075s-4 .71579-4-3.64075 1.79086-10.31546 4-10.31546 4 5.95887 4 10.31546z" fill="#36d8d0"/><path d="m62 62v-30h-12v-21l-18-9v18h-8v42z" fill="#78c1f4"/><path d="m51 45h4v4h-4z" fill="#99ddf2"/><path d="m40 14h4v43h-4z" fill="#a9e4ea"/><path d="m32 2v18h-8v42h38z" fill="#51aaf4"/><path d="m51 37h4v4h-4z" fill="#99ddf2"/><g fill="#78d9ef"><path d="m55 48-1.5-3h-2.5v4h4z"/><path d="m51 53h4v4h-4z"/><path d="m29 37h4v4h-4z"/><path d="m29 45h4v4h-4z"/><path d="m29 29h4v4h-4z"/></g><path d="m6 27h4v4h-4z" fill="#99ddf2"/><path d="m16 27h4v4h-4z" fill="#99ddf2"/><path d="m6 35h4v4h-4z" fill="#99ddf2"/><path d="m16 35h4v4h-4z" fill="#99ddf2"/><path d="m29 53h4v4h-4z" fill="#78d9ef"/><path d="m44 26-4-8v39h4z" fill="#78d9ef"/><path d="m15.64844 3.29688a.99962.99962 0 0 0 -1.41406 0l-.57709.57708c.00982.00916.02282.012.03241.02155a9.44976 9.44976 0 0 1 1.72595 10.96716c.077-.07123.158-.13556.23279-.21033a8.03835 8.03835 0 0 0 0-11.35546z" fill="#ea755e"/><path d="m16 43.5c2.37341 0 4.3562 5.5011 4.86786 10.50494a9.42426 9.42426 0 0 0 .13214-1.68951c0-4.35657-1.79083-10.31543-4-10.31543-.78784 0-1.52026.76593-2.13947 1.93866a1.92083 1.92083 0 0 1 1.13947-.43866z" fill="#79e2da"/><path d="m7 43.5c2.37341 0 4.3562 5.5011 4.86786 10.50494a9.42426 9.42426 0 0 0 .13214-1.68951c0-4.35657-1.79083-10.31543-4-10.31543-.78784 0-1.52026.76593-2.13947 1.93866a1.92083 1.92083 0 0 1 1.13947-.43866z" fill="#79e2da"/></svg>
