<?xml version="1.0" encoding="iso-8859-1"?>
<!-- Generator: Adobe Illustrator 19.0.0, SVG Export Plug-In . SVG Version: 6.00 Build 0)  -->
<svg version="1.1" id="Capa_1" xmlns="http://www.w3.org/2000/svg" xmlns:xlink="http://www.w3.org/1999/xlink" x="0px" y="0px"
	 viewBox="0 0 512 512" style="enable-background:new 0 0 512 512;" xml:space="preserve">
<path style="fill:#F0A479;" d="M347.171,169.962c0-10.508-8.518-19.027-19.025-19.027c-10.509,0-19.027,8.519-19.027,19.027V135.32
	c0-10.516-8.528-19.042-19.044-19.042s-19.042,8.526-19.042,19.042v-14.397c0-10.516-8.525-19.042-19.042-19.042
	c-10.516,0-19.043,8.526-19.043,19.042v26.489l-0.008-12.133c-0.009-10.5-8.529-19.008-19.03-19
	c-10.502,0.008-18.953,8.528-18.944,19.03v21.261l0,0v109.233c-20.667-27.134-11.993-15.748-36.115-47.417
	c-15.719-22.005-43.806-2.761-34.532,17.359c38.572,88.279,39.517,93.901,51.237,105.504l-0.001,0.002
	c21.043,20.595,19.682,15.89,19.682,67.34c0,6.828,5.534,12.362,12.362,12.362c10.691,0,89.486,0,99.98,0
	c6.828,0,12.362-5.534,12.362-12.362c0-7.882,0-12.815,0-22.176h0.003c-0.006-8.222-0.005-6.876-0.01-13.285
	c-0.008-11.903,6.897-19.94,6.95-20.003l2.169-2.36c17.382-14.124,18.107-41.999,18.107-41.999l-0.058-75.151h0.062v-63.655H347.171
	z"/>
<g>
	<path style="fill:#EA976E;" d="M216.413,408.59c0-52.511,0.889-47.186-19.682-67.34l0.001-0.002
		c-11.716-11.6-12.644-17.178-51.237-105.504c-4.43-9.612-0.332-19.021,6.869-23.83c-15.764-10.625-36.135,6.268-28.038,23.83
		c38.572,88.279,39.517,93.901,51.237,105.504l-0.001,0.002c20.598,20.159,19.682,15.082,19.682,67.34
		c0,6.828,5.534,12.362,12.362,12.362h21.17C221.947,420.952,216.413,415.418,216.413,408.59z"/>
	<path style="fill:#EA976E;" d="M210.372,266.21V116.623c-8.794,1.669-15.409,9.395-15.402,18.685v21.261l0,0v109.233l-0.052-0.068
		C194.918,276.758,210.372,276.299,210.372,266.21z"/>
	<path style="fill:#EA976E;" d="M286.576,252.937V116.613c-8.293,1.544-14.691,8.451-15.454,16.993v119.331
		c0,4.266,3.46,7.727,7.726,7.727C283.117,260.664,286.576,257.204,286.576,252.937z"/>
	<path style="fill:#EA976E;" d="M309.378,166.972v88.936c0,4.268,3.46,7.727,7.727,7.727c4.266,0,7.726-3.459,7.726-7.727V151.241
		C316.878,152.641,310.644,158.972,309.378,166.972z"/>
	<path style="fill:#EA976E;" d="M248.416,102.227c-8.734,1.663-15.349,9.282-15.453,18.476v109.655c0,4.268,3.46,7.727,7.727,7.727
		s7.726-3.459,7.726-7.727V102.227z"/>
</g>
<path style="fill:#EA473B;" d="M0,256.001C0,397.384,114.614,512,256,512c141.383,0,256-114.615,256-255.998
	C511.998,114.618,397.383,0,256,0C114.614,0,0,114.618,0,256.001z M469.326,256.001c0,49.118-16.611,94.352-44.51,130.411
	L125.586,87.184c36.061-27.897,81.297-44.51,130.414-44.51C373.814,42.674,469.324,138.185,469.326,256.001z M42.673,256.001
	c0-53.386,19.61-102.191,52.019-139.605l300.91,300.911c-37.414,32.408-86.219,52.018-139.603,52.018
	C138.184,469.327,42.673,373.816,42.673,256.001z"/>
<path style="fill:#E03B36;" d="M20.701,256.001C20.703,118.087,129.77,5.661,266.351,0.226C120.373-5.589,0.002,111.097,0,256.001
	c0,144.901,120.37,261.586,266.351,255.773C129.769,506.34,20.701,393.916,20.701,256.001z"/>
<g>
</g>
<g>
</g>
<g>
</g>
<g>
</g>
<g>
</g>
<g>
</g>
<g>
</g>
<g>
</g>
<g>
</g>
<g>
</g>
<g>
</g>
<g>
</g>
<g>
</g>
<g>
</g>
<g>
</g>
</svg>
