<?xml version="1.0" encoding="iso-8859-1"?>
<!-- Generator: Adobe Illustrator 19.0.0, SVG Export Plug-In . SVG Version: 6.00 Build 0)  -->
<svg version="1.1" id="Capa_1" xmlns="http://www.w3.org/2000/svg" xmlns:xlink="http://www.w3.org/1999/xlink" x="0px" y="0px"
	 viewBox="0 0 464 464" style="enable-background:new 0 0 464 464;" xml:space="preserve">
<path style="fill:#29485A;" d="M312,80h29.168c6.533,0.009,12.405,3.99,14.832,10.056l39.056,97.648
	c3.256,8.142,7.829,15.694,13.536,22.352l35.536,41.448c2.494,2.898,3.867,6.593,3.872,10.416V352H16v-90.08
	c0.002-3.815,1.367-7.503,3.848-10.4l35.536-41.448c5.707-6.658,10.28-14.21,13.536-22.352L108,90.056
	c2.427-6.066,8.299-10.047,14.832-10.056H152"/>
<path style="fill:#B3B3B3;" d="M8,352h448c4.418,0,8,3.582,8,8v32c0,4.418-3.582,8-8,8H8c-4.418,0-8-3.582-8-8v-32
	C0,355.582,3.582,352,8,352z"/>
<path style="fill:#29ABE2;" d="M152,112h-24l-32,88h272l-32-88h-24H152z"/>
<g>
	<path style="fill:#333333;" d="M32,400h80l0,0v48c0,4.418-3.582,8-8,8H40c-4.418,0-8-3.582-8-8V400L32,400z"/>
	<path style="fill:#333333;" d="M352,400h80l0,0v48c0,4.418-3.582,8-8,8h-64c-4.418,0-8-3.582-8-8V400L352,400z"/>
	<path style="fill:#333333;" d="M400,200h40v-40h-56"/>
	<path style="fill:#333333;" d="M64,200H16v-40h64"/>
</g>
<g>
	<circle style="fill:#F2F2F2;" cx="80" cy="296" r="32"/>
	<circle style="fill:#F2F2F2;" cx="384" cy="296" r="32"/>
</g>
<g>
	<path style="fill:#CCCCCC;" d="M152,272h160v16H152V272z"/>
	<path style="fill:#CCCCCC;" d="M152,304h160v16H152V304z"/>
</g>
<path style="fill:#666666;" d="M152,288v8v8h160v-16H152z"/>
<path style="fill:#ED1C24;" d="M152.272,94.664C152.096,92.472,152,90.248,152,88c0.042-44.143,35.86-79.894,80.003-79.853
	s79.894,35.86,79.853,80.003s-35.86,79.894-80.003,79.853C190.293,167.964,155.698,136.082,152.272,94.664"/>
<path style="fill:#F2F2F2;" d="M208,128c-0.267-0.001-0.534-0.017-0.8-0.048c-2.225-0.222-4.256-1.365-5.6-3.152l-24-32
	c-2.651-3.535-1.935-8.549,1.6-11.2c3.535-2.651,8.549-1.935,11.2,1.6l18.824,25.096l57.504-50.32
	c3.327-2.912,8.384-2.575,11.296,0.752c2.912,3.327,2.575,8.384-0.752,11.296l-64,56C211.812,127.3,209.939,128.002,208,128z"/>
<g>
	<path style="fill:#06AAE9;" d="M464,48c-22.091,0-40-17.909-40-40c0,22.091-17.909,40-40,40c22.091,0,40,17.909,40,40
		C424,65.909,441.909,48,464,48z"/>
	<path style="fill:#06AAE9;" d="M64,96c-17.673,0-32-14.327-32-32c0,17.673-14.327,32-32,32c17.673,0,32,14.327,32,32
		C32,110.327,46.327,96,64,96z"/>
</g>
<g>
</g>
<g>
</g>
<g>
</g>
<g>
</g>
<g>
</g>
<g>
</g>
<g>
</g>
<g>
</g>
<g>
</g>
<g>
</g>
<g>
</g>
<g>
</g>
<g>
</g>
<g>
</g>
<g>
</g>
</svg>
