<?xml version="1.0" encoding="iso-8859-1"?>
<!-- Generator: Adobe Illustrator 19.0.0, SVG Export Plug-In . SVG Version: 6.00 Build 0)  -->
<svg version="1.1" id="Capa_1" xmlns="http://www.w3.org/2000/svg" xmlns:xlink="http://www.w3.org/1999/xlink" x="0px" y="0px"
	 viewBox="0 0 512 512" style="enable-background:new 0 0 512 512;" xml:space="preserve">
<path style="fill:#415A87;" d="M511.989,253.57c0.748,80.61-35.767,152.717-93.364,200.146c-3.836,3.159-9.625,0.385-9.625-4.585
	V182.5H22.34c-5.841,0-9.878-5.778-7.944-11.29C49.253,71.878,143.616,0.543,254.729,0.003
	C395.246-0.68,510.685,113.058,511.989,253.57z"/>
<path style="fill:#FF784B;" d="M2.565,219.753C5.004,202.561,9.146,185.917,14.822,170H420v60H11.485
	C6.02,230,1.798,225.164,2.565,219.753z"/>
<path style="fill:#FF6633;" d="M420,244.794l-98.573,86.121c-1.884,1.646-4.695,1.646-6.579,0l-108.666-94.94
	c-21.504-18.788-35.488-41.753-41.973-65.975H420V244.794z"/>
<path style="fill:#FFC396;" d="M2.678,218.952H420v233.609C375.58,489.663,318.402,512,256,512C114.615,512,0,397.385,0,256
	C0,243.416,0.925,231.05,2.678,218.952z"/>
<path style="fill:#FF9B69;" d="M130,285v90c0,2.761-2.239,5-5,5H32.002C15.288,349.872,4.479,316.021,1.129,280H125
	C127.761,280,130,282.239,130,285z M125,412H53.029c20.868,27.111,47.04,49.922,76.971,66.88V417C130,414.239,127.761,412,125,412z
	 M185,380h102c2.761,0,5-2.239,5-5v-10c0-2.761-2.239-5-5-5H185c-2.761,0-5,2.239-5,5v10C180,377.761,182.239,380,185,380z
	 M420,218.952H189.65c4.907,5.965,10.403,11.669,16.532,17.023L256.572,280H185c-2.761,0-5,2.239-5,5v10c0,2.761,2.239,5,5,5h94.463
	l22.892,20H185c-2.761,0-5,2.239-5,5v10c0,2.761,2.239,5,5,5h190c2.761,0,5-2.239,5-5v-10c0-2.761-2.239-5-5-5h-41.08l22.892-20H375
	c2.761,0,5-2.239,5-5v-10c0-1.502-0.677-2.834-1.726-3.751L420,244.794V218.952z M375,412H185c-2.761,0-5,2.239-5,5v10
	c0,2.761,2.239,5,5,5h190c2.761,0,5-2.239,5-5v-10C380,414.239,377.761,412,375,412z M287,492H185c-2.761,0-5,2.239-5,5v3.528
	C204.012,507.983,229.537,512,256,512c11.968,0,23.737-0.84,35.268-2.43c0.455-0.753,0.732-1.626,0.732-2.57v-10
	C292,494.239,289.761,492,287,492z M375,452H185c-2.761,0-5,2.239-5,5v10c0,2.761,2.239,5,5,5h190c2.761,0,5-2.239,5-5v-10
	C380,454.239,377.761,452,375,452z"/>
<path style="fill:#FFE1C3;" d="M465.818,235.975l-108.666,94.94c-1.884,1.646-4.695,1.646-6.579,0l-108.666-94.94
	c-61.576-53.797-61.576-141.83,0-195.627l0,0c61.576-53.797,162.336-53.797,223.911,0l0,0
	C527.394,94.146,527.394,182.178,465.818,235.975z"/>
<path style="fill:#FF4B6E;" d="M445.225,159.93L445.225,159.93c-16.881,22.585-36.857,42.632-59.311,59.564
	c-9.947,7.501-20.723,13.837-32.051,19.024h-0.001l0,0c-11.328-5.187-22.104-11.523-32.052-19.025
	c-22.453-16.932-42.429-36.979-59.31-59.564l0,0c-16.362-21.891-14.163-52.477,5.162-71.802l0,0
	c21.474-21.474,56.29-21.474,77.764,0l8.436,8.436l8.436-8.436c21.474-21.474,56.29-21.474,77.764,0l0,0
	C459.388,107.453,461.587,138.039,445.225,159.93z"/>
<path style="fill:#DC325F;" d="M370.778,229.647c-5.47,3.258-11.119,6.217-16.915,8.871h-0.001
	c-11.328-5.188-22.104-11.523-32.052-19.025c-22.453-16.933-42.429-36.979-59.31-59.564l0,0
	c-16.362-21.891-14.163-52.477,5.162-71.802l0,0c15.097-15.097,36.784-19.564,55.798-13.434
	c-8.032,2.589-15.589,7.057-21.966,13.434l0,0c-19.326,19.326-21.525,49.911-5.162,71.802l0,0
	c16.881,22.585,36.857,42.631,59.31,59.564C360.499,223.157,365.557,226.538,370.778,229.647z"/>
<g>
</g>
<g>
</g>
<g>
</g>
<g>
</g>
<g>
</g>
<g>
</g>
<g>
</g>
<g>
</g>
<g>
</g>
<g>
</g>
<g>
</g>
<g>
</g>
<g>
</g>
<g>
</g>
<g>
</g>
</svg>
